Coordinates
version=1
nRows=17
nColumns=40
inDegrees=yes

Units are S.I. units (second, meters, Newtons, ...)
Angles are in degrees.

endheader
time	pelvis_tilt	pelvis_list	pelvis_rotation	pelvis_tx	pelvis_ty	pelvis_tz	hip_flexion_r	hip_adduction_r	hip_rotation_r	knee_angle_r	knee_angle_r_beta	ankle_angle_r	subtalar_angle_r	mtp_angle_r	hip_flexion_l	hip_adduction_l	hip_rotation_l	knee_angle_l	knee_angle_l_beta	ankle_angle_l	subtalar_angle_l	mtp_angle_l	lumbar_extension	lumbar_bending	lumbar_rotation	arm_flex_r	arm_add_r	arm_rot_r	elbow_flex_r	pro_sup_r	wrist_flex_r	wrist_dev_r	arm_flex_l	arm_add_l	arm_rot_l	elbow_flex_l	pro_sup_l	wrist_flex_l	wrist_dev_l
      2.61000000	     -2.95872289	     -2.55149000	      5.08159071	      0.51148495	      0.88702256	     -0.99776096	     23.60659761	     -0.11446602	    -14.92183286	    -25.59478783	     -0.44671332	      2.43954536	     -8.84923353	      6.94662322	      3.66953965	      6.16434991	      3.33605849	    -43.21846755	     -0.75430456	      1.85150860	     12.81441388	     -3.05137120	     -0.49564960	      2.09235515	     -8.87578183	     -2.13718100	     -7.33562089	    -12.89075665	     22.76200878	     89.95437384	      0.00000000	      0.00000000	      5.13852456	     11.37456469	     11.62005556	     42.55621494	     89.95437384	      0.00000000	      0.00000000
      2.62000000	     -3.07961630	     -2.65075408	      4.95158233	      0.51825983	      0.88759973	     -0.99550106	     23.16846361	      0.21751813	    -15.06795206	    -25.39119674	     -0.44315998	      2.76567840	     -8.65223526	      6.78830580	      4.77460658	      6.40399785	      3.03930071	    -45.20747457	     -0.78901928	     -0.44308432	     13.64008714	     -2.55600125	     -0.31270185	      2.18404090	     -8.72969751	     -2.10425373	     -7.39805201	    -12.45406664	     23.06788578	     89.95437384	      0.00000000	      0.00000000	      4.73963351	     11.28914999	     11.57749110	     42.19757792	     89.95437384	      0.00000000	      0.00000000
      2.63000000	     -3.05807126	     -2.61262337	      4.85519670	      0.52489513	      0.88826094	     -0.99323233	     22.59282333	      0.42662428	    -15.06899316	    -25.25984486	     -0.44086746	      3.18926596	     -8.45433185	      6.59691885	      5.78694987	      6.57764866	      2.91048631	    -47.18093114	     -0.82346259	     -2.79766656	     14.11347571	     -2.06969832	     -0.32937812	      2.11034433	     -8.56257359	     -2.03177950	     -7.41604415	    -12.05928922	     23.36171320	     89.95437384	      0.00000000	      0.00000000	      4.44348249	     11.24909579	     11.50459722	     41.82763148	     89.95437384	      0.00000000	      0.00000000
      2.64000000	     -3.06621576	     -2.67173708	      4.70194229	      0.53139604	      0.88874189	     -0.99112271	     22.05487337	      0.70029596	    -15.19091412	    -25.10476554	     -0.43816082	      3.61818534	     -8.17037832	      6.41065119	      6.87163544	      6.78525508	      2.69467091	    -49.15379329	     -0.85789553	     -5.08309813	     14.61383031	     -1.52263960	     -0.31421662	      2.17535253	     -8.35163575	     -1.93400594	     -7.51801049	    -11.55247451	     23.70563375	     89.95437384	      0.00000000	      0.00000000	      4.14312108	     11.15824365	     11.43004443	     41.40673421	     89.95437384	      0.00000000	      0.00000000
      2.65000000	     -3.03256652	     -2.68452362	      4.55711637	      0.53768971	      0.88920701	     -0.98900692	     21.50772427	      0.92197961	    -15.27554705	    -25.00461420	     -0.43641285	      4.02990241	     -7.83912339	      6.20801991	      7.94308419	      6.95439344	      2.49495501	    -51.12199007	     -0.89224705	     -6.88637659	     14.92738611	     -1.02783438	     -0.38946516	      2.18507920	     -8.10754232	     -1.80720215	     -7.60775864	    -11.10368686	     24.04193024	     89.95437384	      0.00000000	      0.00000000	      3.90894254	     11.07459585	     11.39913842	     40.97798284	     89.95437384	      0.00000000	      0.00000000
      2.66000000	     -2.82617684	     -2.36004913	      4.19565737	      0.54389589	      0.88989326	     -0.98705003	     20.87115891	      0.77552265	    -15.26464454	    -25.07745415	     -0.43768414	      4.20752148	     -7.56673385	      6.03314499	      8.64136027	      6.68024409	      2.45945049	    -52.90692901	     -0.92340011	     -7.60388813	     14.66786656	     -0.88347914	     -0.73592747	      1.85467691	     -7.59557594	     -1.60064835	     -7.67858677	    -10.84447621	     24.33510337	     89.95437384	      0.00000000	      0.00000000	      3.67614494	     10.97242470	     11.41158152	     40.72123967	     89.95437384	      0.00000000	      0.00000000
      2.67000000	     -2.84482911	     -2.67370918	      4.19891742	      0.54989745	      0.89009230	     -0.98520968	     20.42113373	      1.28052584	    -15.37542904	    -25.01417381	     -0.43657969	      4.90880050	     -7.07872564	      5.76287542	      9.97999444	      7.18973975	      2.25115901	    -54.95304500	     -0.95911157	     -8.80579160	     15.40046507	     -0.37719163	     -0.73661995	      2.21355263	     -7.53079398	     -1.37516561	     -7.86317057	    -10.21957104	     24.62242465	     89.95437384	      0.00000000	      0.00000000	      3.54021440	     10.81799756	     11.42577700	     40.00676416	     89.95437384	      0.00000000	      0.00000000
      2.68000000	     -2.64077973	     -2.34965544	      3.88128000	      0.55599137	      0.89067047	     -0.98353106	     19.80032779	      1.09891830	    -15.36210160	    -25.09864946	     -0.43805407	      5.04649380	     -6.85367428	      5.61228421	     10.73610671	      6.95798682	      2.43656281	    -56.58586098	     -0.98760958	     -8.73504259	     15.33332247	     -0.30153850	     -1.09358513	      1.88995594	     -7.06363744	     -1.13118433	     -7.96027257	     -9.99400973	     24.87140062	     89.95437384	      0.00000000	      0.00000000	      3.28438119	     10.69764426	     11.45840927	     39.74328841	     89.95437384	      0.00000000	      0.00000000
      2.69000000	     -2.92180806	     -2.55960686	      3.83596958	      0.56146875	      0.89027490	     -0.98206528	     19.81903395	      1.43704903	    -15.29317594	    -25.24700960	     -0.44064344	      5.43885903	     -6.47957981	      3.91057916	     12.47359439	      7.22004955	      2.39742983	    -58.83599918	     -1.02688190	     -6.43316636	     15.92125337	     12.14236494	     -0.86039035	      2.13529027	     -6.98077170	     -0.90201722	     -8.25751073	     -9.09104636	     25.22080535	     89.95437384	      0.00000000	      0.00000000	      3.09008715	     10.46264820	     11.71232935	     39.09053005	     89.95437384	      0.00000000	      0.00000000
      2.70000000	     -2.67620165	     -2.47965423	      3.61759849	      0.56744802	      0.89088056	     -0.98044915	     19.17934578	      1.57142862	    -15.07802789	    -25.33190129	     -0.44212508	      5.78805607	     -6.37853834	      3.79375664	     13.24778710	      7.32398955	      2.73565408	    -60.23098618	     -1.05122902	     -5.76941776	     16.65535746	     12.05294242	     -1.22020586	      2.07553282	     -6.62590095	     -0.49712724	     -8.37704649	     -8.89824837	     25.24968007	     89.95437384	      0.00000000	      0.00000000	      2.99098104	     10.32627223	     11.80362594	     38.41122014	     89.95437384	      0.00000000	      0.00000000
      2.71000000	     -2.53237719	     -2.45036076	      3.37891702	      0.57330510	      0.89127061	     -0.97884321	     18.63522367	      1.79647488	    -14.77635576	    -25.36260001	     -0.44266088	      6.17746715	     -6.32519250	      3.68684142	     14.16174719	      7.44658441	      3.03922826	    -61.53507951	     -1.07398974	     -5.03323402	     17.43091739	     12.04875359	     -1.47392561	      2.06368984	     -6.25131323	     -0.13930381	     -8.53378107	     -8.63201262	     25.36422255	     89.95437384	      0.00000000	      0.00000000	      2.85061835	     10.15503711	     11.93575156	     37.76185878	     89.95437384	      0.00000000	      0.00000000
      2.72000000	     -2.43447432	     -2.36714498	      3.11132895	      0.57909705	      0.89162171	     -0.97726335	     18.12117381	      1.98495695	    -14.34438415	    -25.34075531	     -0.44227962	      6.55544569	     -6.35931088	      3.58911269	     15.12150790	      7.51398315	      3.38972576	    -62.68995848	     -1.09414618	     -4.37574847	     17.96048084	     12.16131307	     -1.68061650	      1.98282424	     -5.84940417	      0.19380984	     -8.67009082	     -8.39556485	     25.50623898	     89.95437384	      0.00000000	      0.00000000	      2.69900291	      9.97132505	     12.16338954	     37.09521850	     89.95437384	      0.00000000	      0.00000000
      2.73000000	     -2.25974026	     -2.10066768	      2.90120268	      0.58498819	      0.89215471	     -0.97589113	     17.50332539	      1.86614340	    -14.28857126	    -25.35360770	     -0.44250393	      6.75586310	     -6.36432510	      3.52518065	     15.95355319	      7.41373636	      3.84497014	    -63.58811538	     -1.10982198	     -4.10198896	     18.03517908	     12.07808968	     -1.98004076	      1.68782472	     -5.52660241	      0.55137718	     -8.75316062	     -8.28789283	     25.61050442	     89.95437384	      0.00000000	      0.00000000	      2.43479515	      9.88920931	     12.23568752	     36.61448930	     89.95437384	      0.00000000	      0.00000000
      2.74000000	     -2.11918717	     -2.00797566	      2.65658761	      0.59079628	      0.89264092	     -0.97445197	     16.88655136	      2.02855716	    -13.91333595	    -25.26175415	     -0.44090078	      7.22648890	     -6.39668179	      3.44040498	     16.81453986	      7.44525744	      4.17001586	    -64.38485100	     -1.12372764	     -3.29098697	     18.40720978	     12.14590329	     -2.19295208	      1.58513776	     -5.19666280	      1.04569888	     -8.85527144	     -8.10252774	     25.50318580	     89.95437384	      0.00000000	      0.00000000	      2.31972169	      9.73274183	     12.42181100	     35.73496753	     89.95437384	      0.00000000	      0.00000000
      2.75000000	     -2.06027246	     -1.98713493	      2.33287353	      0.59657183	      0.89304694	     -0.97300164	     16.34667762	      2.31699168	    -13.20605972	    -25.13777850	     -0.43873700	      7.72848508	     -6.48248251	      3.37537060	     17.71588886	      7.54313970	      4.48360080	    -65.02792652	     -1.13495142	     -1.91088874	     18.49493299	     12.47681843	     -2.30530342	      1.56961852	     -4.80047344	      1.46949146	     -9.00156590	     -7.88760405	     25.47316395	     89.95437384	      0.00000000	      0.00000000	      2.23729616	      9.47854509	     12.88024386	     34.72235122	     89.95437384	      0.00000000	      0.00000000
      2.76000000	     -1.94440163	     -1.86862698	      2.07427118	      0.60227989	      0.89355301	     -0.97165350	     15.74917167	      2.41270506	    -12.84860482	    -25.03833031	     -0.43700130	      8.03966396	     -6.56302912	      3.35004235	     18.55745765	      7.50682326	      4.76155866	    -65.49178154	     -1.14304722	     -0.62547833	     18.54235941	     12.72846261	     -2.49347304	      1.43376069	     -4.50044177	      1.92442741	     -9.09565723	     -7.76449407	     25.46228920	     89.95437384	      0.00000000	      0.00000000	      2.07426273	      9.33702688	     13.20379793	     33.89803079	     89.95437384	      0.00000000	      0.00000000
      2.77000000	     -1.85626616	     -1.67410684	      1.85533503	      0.60806167	      0.89403432	     -0.97063770	     15.13099842	      2.38159970	    -12.57193518	    -24.87251781	     -0.43410733	      8.39823500	     -6.59880673	      3.31933206	     19.36826767	      7.33198243	      5.02174855	    -65.72037547	     -1.14703694	      0.51574574	     18.51317099	     12.89866673	     -2.63580665	      1.22790350	     -4.24519877	      2.33313243	     -9.18800402	     -7.67365230	     25.50014358	     89.95437384	      0.00000000	      0.00000000	      1.86986838	      9.19975002	     13.46062312	     33.09497208	     89.95437384	      0.00000000	      0.00000000
